Coordinates
version=1
nRows=60
nColumns=12
inDegrees=yes

Units are S.I. units (second, meters, Newtons, ...)
Angles are in degrees

endheader
time	SC_y	SC_z	SC_x	AC_y	AC_z	AC_x	GH_y	GH_z	GH_yy	EL_x	PS_y
       0.0               -42.7          38.01          80.14          30.92         -6.814         -11.69         -150.3          64.08         -86.03          137.1          41.27
   0.04909              -42.71          38.01          80.13          30.92         -6.812         -11.69         -150.3          64.08         -86.02          137.1          41.27
   0.09818              -42.71          38.01          80.12          30.93          -6.81         -11.69         -150.3          64.08          -86.0          137.1          41.27
    0.1473              -42.71          38.01          80.11          30.93         -6.808         -11.69         -150.3          64.09         -85.98          137.1          41.26
    0.1964              -42.72          38.01           80.1          30.93         -6.806         -11.69         -150.3          64.09         -85.97          137.1          41.26
    0.2454              -42.72          38.01          80.09          30.94         -6.803          -11.7         -150.3          64.09         -85.95          137.0          41.25
    0.2945              -42.72          38.01          80.08          30.95         -6.801          -11.7         -150.2           64.1         -85.93          137.0          41.25
    0.3436              -42.73          38.01          80.06          30.95         -6.798          -11.7         -150.2           64.1         -85.91          137.0          41.24
    0.3927              -42.73          38.01          80.05          30.96         -6.796          -11.7         -150.2           64.1         -85.88          136.9          41.24
    0.4418              -42.73          38.01          80.03          30.97         -6.793          -11.7         -150.2          64.11         -85.86          136.9          41.23
    0.4909              -42.74          38.01          80.01          30.97         -6.789          -11.7         -150.2          64.11         -85.83          136.9          41.23
      0.54              -42.74          38.01           80.0          30.98         -6.786          -11.7         -150.2          64.12          -85.8          136.8          41.22
    0.5891              -42.75          38.01          79.98          30.99         -6.782         -11.71         -150.2          64.12         -85.77          136.8          41.21
    0.6382              -42.75          38.01          79.95           31.0         -6.778         -11.71         -150.2          64.13         -85.74          136.8          41.21
    0.6873              -42.76          38.01          79.93          31.01         -6.774         -11.71         -150.1          64.13         -85.71          136.7           41.2
    0.7363              -42.77          38.01          79.91          31.02         -6.769         -11.71         -150.1          64.14         -85.67          136.7          41.19
    0.7854              -42.77          38.01          79.88          31.03         -6.764         -11.72         -150.1          64.15         -85.62          136.6          41.18
    0.8345              -42.78          38.01          79.85          31.04         -6.759         -11.72         -150.1          64.16         -85.58          136.6          41.17
    0.8836              -42.79          38.01          79.82          31.06         -6.752         -11.72         -150.1          64.16         -85.53          136.5          41.16
    0.9327               -42.8          38.02          79.78          31.07         -6.746         -11.72         -150.0          64.17         -85.47          136.4          41.14
    0.9818              -42.81          38.02          79.74          31.09         -6.738         -11.73         -150.0          64.18         -85.41          136.4          41.13
     1.031              -42.82          38.02           79.7          31.11          -6.73         -11.73         -150.0           64.2         -85.35          136.3          41.11
      1.08              -42.83          38.02          79.65          31.13         -6.721         -11.74         -149.9          64.21         -85.27          136.2           41.1
     1.129              -42.85          38.02           79.6          31.15         -6.712         -11.74         -149.9          64.22         -85.19          136.1          41.08
     1.178              -42.86          38.02          79.54          31.18         -6.701         -11.75         -149.9          64.24          -85.1          136.0          41.06
     1.227              -42.88          38.02          79.48          31.21         -6.688         -11.75         -149.8          64.26          -85.0          135.9          41.03
     1.276               -42.9          38.03           79.4          31.24         -6.675         -11.76         -149.8          64.28         -84.89          135.7          41.01
     1.325              -42.92          38.03          79.32          31.28         -6.659         -11.77         -149.7           64.3         -84.76          135.6          40.98
     1.375              -42.94          38.03          79.23          31.32         -6.642         -11.78         -149.6          64.32         -84.62          135.4          40.95
     1.424              -42.97          38.03          79.12          31.36         -6.622         -11.79         -149.6          64.35         -84.46          135.2          40.91
     1.473               -43.0          38.04           79.0          31.42         -6.599          -11.8         -149.5          64.38         -84.27          135.0          40.87
     1.522              -43.04          38.04          78.86          31.48         -6.574         -11.81         -149.4          64.42         -84.06          134.7          40.82
     1.571              -43.08          38.05           78.7          31.55         -6.544         -11.83         -149.3          64.46         -83.81          134.4          40.76
      1.62              -43.13          38.05          78.52          31.63         -6.509         -11.84         -149.1          64.51         -83.53          134.0          40.69
     1.669              -43.19          38.06           78.3          31.72         -6.468         -11.87         -149.0          64.57         -83.19          133.6          40.62
     1.718              -43.25          38.06          78.04          31.83          -6.42         -11.89         -148.8          64.64          -82.8          133.1          40.53
     1.767              -43.33          38.07          77.74          31.97         -6.363         -11.92         -148.6          64.72         -82.33          132.6          40.42
     1.816              -43.43          38.08          77.38          32.13         -6.295         -11.95         -148.3          64.82         -81.77          131.9          40.29
     1.865              -43.54          38.09          76.94          32.32         -6.212          -12.0         -148.0          64.93         -81.09          131.0          40.13
     1.915              -43.68          38.11           76.4          32.55         -6.111         -12.05         -147.6          65.08         -80.26          130.0          39.94
     1.964              -43.86          38.13          75.73          32.84         -5.987         -12.11         -147.1          65.26         -79.24          128.7           39.7
     2.013              -44.08          38.15           74.9          33.21         -5.831         -12.19         -146.5          65.48         -77.96          127.1          39.41
     2.062              -44.35          38.18          73.86          33.66         -5.635         -12.29         -145.7          65.76         -76.35          125.2          39.04
     2.111               -44.7          38.22          72.53          34.24         -5.387         -12.42         -144.8          66.11         -74.31          122.6          38.56
      2.16              -45.14          38.26          70.83          34.99         -5.068         -12.58         -143.6          66.56         -71.69          119.4          37.96
     2.209              -45.71          38.32          68.65          35.94         -4.659         -12.79         -142.0          67.15         -68.34          115.2          37.18
     2.258              -46.44           38.4          65.87          37.16         -4.137         -13.05         -140.0          67.89         -64.05          109.9          36.19
     2.307              -47.35           38.5          62.37          38.69          -3.48         -13.38         -137.4          68.82         -58.65          103.3          34.95
     2.356              -48.47          38.62           58.1          40.55          -2.68         -13.79         -134.3          69.96         -52.08          95.13          33.43
     2.405              -49.77          38.75          53.15          42.72         -1.753         -14.26         -130.7          71.28         -44.47          85.71          31.67
     2.454              -51.17           38.9           47.8          45.06        -0.7487         -14.77         -126.9          72.72         -36.22          75.51          29.77
     2.504              -52.57          39.05          42.44           47.4         0.2555         -15.28         -123.0          74.15         -27.97           65.3          27.86
     2.553              -53.86          39.19          37.49          49.56          1.183         -15.75         -119.4          75.47         -20.35          55.88           26.1
     2.602              -54.98          39.31          33.23          51.43          1.983         -16.16         -116.3          76.61         -13.78          47.75          24.58
     2.651              -55.89          39.41          29.73          52.96           2.64          -16.5         -113.8          77.54          -8.39          41.08          23.34
       2.7              -56.62          39.48          26.94          54.18          3.162         -16.76         -111.7          78.28         -4.101          35.77          22.35
     2.749              -57.19          39.54          24.76          55.13          3.571         -16.97         -110.2          78.87        -0.7434          31.62          21.57
     2.798              -57.64          39.59          23.06          55.87          3.889         -17.13         -108.9          79.32          1.873          28.38          20.97
     2.847              -57.98          39.63          21.73          56.45          4.138         -17.26         -108.0          79.67          3.917          25.85          20.49
     2.896              -58.26          39.66          20.69          56.91          4.334         -17.36         -107.2          79.95          5.525          23.86          20.12
